ffmpeg started on 2016-12-01 at 08:31:34
Report written to "Output/x264/results/ffmpeg/old_town_cross_2160p50medium11000k.log"
Command line:
Tools/ffmpeg/ffmpeg -benchmark -y -i Input/y4m/old_town_cross_2160p50.y4m -c:v libx264 -preset medium -b:v 11000k -an Output/x264/encoded/old_town_cross_2160p50medium11000k.mkv
ffmpeg version N-82227-gdb23fde Copyright (c) 2000-2016 the FFmpeg developers
  built with gcc 5.4.0 (Ubuntu 5.4.0-6ubuntu1~16.04.2) 20160609
  configuration: --prefix=/home/jaroslav/ffmpeg_build --pkg-config-flags=--static --extra-cflags=-I/home/jaroslav/ffmpeg_build/include --extra-ldflags=-L/home/jaroslav/ffmpeg_build/lib --bindir=/home/jaroslav/bin --enable-gpl --enable-libass --enable-libfdk-aac --enable-libfreetype --enable-libmp3lame --enable-libopus --enable-libtheora --enable-libvorbis --enable-libvpx --enable-libx264 --enable-libx265 --enable-nvenc --enable-libmfx --enable-libxvid --enable-libgsm --enable-libopencore-amrnb --enable-version3 --enable-nonfree
  libavutil      55. 35.100 / 55. 35.100
  libavcodec     57. 66.101 / 57. 66.101
  libavformat    57. 57.100 / 57. 57.100
  libavdevice    57.  2.100 / 57.  2.100
  libavfilter     6. 66.100 /  6. 66.100
  libswscale      4.  3.100 /  4.  3.100
  libswresample   2.  4.100 /  2.  4.100
  libpostproc    54.  2.100 / 54.  2.100
Input #0, yuv4mpegpipe, from 'Input/y4m/old_town_cross_2160p50.y4m':
  Duration: 00:00:10.00, start: 0.000000, bitrate: 4976642 kb/s
    Stream #0:0: Video: rawvideo (I420 / 0x30323449), yuv420p(progressive), 3840x2160, SAR 1:1 DAR 16:9, 50 fps, 50 tbr, 50 tbn, 50 tbc
[libx264 @ 0x2815120] using SAR=1/1
[libx264 @ 0x2815120] using cpu capabilities: MMX2 SSE2Fast SSSE3 SSE4.2 AVX FMA3 AVX2 LZCNT BMI2
[libx264 @ 0x2815120] profile High, level 5.2
[libx264 @ 0x2815120] 264 - core 148 - H.264/MPEG-4 AVC codec - Copyleft 2003-2016 - http://www.videolan.org/x264.html - options: cabac=1 ref=3 deblock=1:0:0 analyse=0x3:0x113 me=hex subme=7 psy=1 psy_rd=1.00:0.00 mixed_ref=1 me_range=16 chroma_me=1 trellis=1 8x8dct=1 cqm=0 deadzone=21,11 fast_pskip=1 chroma_qp_offset=-2 threads=6 lookahead_threads=1 sliced_threads=0 nr=0 decimate=1 interlaced=0 bluray_compat=0 constrained_intra=0 bframes=3 b_pyramid=2 b_adapt=1 b_bias=0 direct=1 weightb=1 open_gop=0 weightp=2 keyint=250 keyint_min=25 scenecut=40 intra_refresh=0 rc_lookahead=40 rc=abr mbtree=1 bitrate=11000 ratetol=1.0 qcomp=0.60 qpmin=0 qpmax=69 qpstep=4 ip_ratio=1.40 aq=1:1.00
Output #0, matroska, to 'Output/x264/encoded/old_town_cross_2160p50medium11000k.mkv':
  Metadata:
    encoder         : Lavf57.57.100
    Stream #0:0: Video: h264 (libx264) (H264 / 0x34363248), yuv420p, 3840x2160 [SAR 1:1 DAR 16:9], q=-1--1, 11000 kb/s, 50 fps, 1k tbn, 50 tbc
    Metadata:
      encoder         : Lavc57.66.101 libx264
    Side data:
      cpb: bitrate max/min/avg: 0/0/11000000 buffer size: 0 vbv_delay: -1
Stream mapping:
  Stream #0:0 -> #0:0 (rawvideo (native) -> h264 (libx264))
Press [q] to stop, [?] for help
frame=   47 fps= 18 q=0.0 size=       0kB time=00:00:00.00 bitrate=N/A speed=   0x    frame=   53 fps= 17 q=33.0 size=       1kB time=00:00:00.00 bitrate=5872.0kbits/s speed=0.000324x    frame=   57 fps= 16 q=36.0 size=       1kB time=00:00:00.08 bitrate=  72.5kbits/s speed=0.0224x    frame=   66 fps= 16 q=43.0 size=       1kB time=00:00:00.26 bitrate=  22.5kbits/s speed=0.0627x    frame=   74 fps= 16 q=39.0 size=       1kB time=00:00:00.42 bitrate=  13.9kbits/s speed=0.0902x    frame=   82 fps= 16 q=37.0 size=       1kB time=00:00:00.58 bitrate=  10.1kbits/s speed=0.111x    frame=   90 fps= 15 q=36.0 size=       1kB time=00:00:00.74 bitrate=   7.9kbits/s speed=0.122x    frame=   98 fps= 15 q=35.0 size=       1kB time=00:00:00.90 bitrate=   6.5kbits/s speed=0.134x    frame=  104 fps= 14 q=35.0 size=       1kB time=00:00:01.02 bitrate=   5.8kbits/s speed=0.141x    frame=  110 fps= 14 q=35.0 size=       1kB time=00:00:01.14 bitrate=   5.1kbits/s speed=0.145x    frame=  117 fps= 14 q=35.0 size=       1kB time=00:00:01.28 bitrate=   4.6kbits/s speed=0.153x    frame=  122 fps= 14 q=34.0 size=       1kB time=00:00:01.38 bitrate=   4.3kbits/s speed=0.155x    frame=  127 fps= 13 q=34.0 size=       1kB time=00:00:01.48 bitrate=   4.0kbits/s speed=0.157x    frame=  134 fps= 13 q=34.0 size=       1kB time=00:00:01.62 bitrate=   3.6kbits/s speed=0.161x    frame=  141 fps= 13 q=34.0 size=       1kB time=00:00:01.76 bitrate=   3.3kbits/s speed=0.163x    frame=  148 fps= 13 q=34.0 size=       1kB time=00:00:01.90 bitrate=   3.1kbits/s speed=0.167x    frame=  154 fps= 13 q=34.0 size=       1kB time=00:00:02.02 bitrate=   2.9kbits/s speed=0.169x    frame=  159 fps= 13 q=34.0 size=       1kB time=00:00:02.12 bitrate=   2.8kbits/s speed=0.17x    frame=  165 fps= 13 q=34.0 size=       1kB time=00:00:02.24 bitrate=   2.6kbits/s speed=0.173x    frame=  170 fps= 13 q=34.0 size=       1kB time=00:00:02.34 bitrate=   2.5kbits/s speed=0.174x    frame=  175 fps= 12 q=33.0 size=       1kB time=00:00:02.44 bitrate=   2.4kbits/s speed=0.174x    frame=  181 fps= 12 q=33.0 size=       1kB time=00:00:02.56 bitrate=   2.3kbits/s speed=0.176x    frame=  186 fps= 12 q=33.0 size=       1kB time=00:00:02.66 bitrate=   2.2kbits/s speed=0.177x    frame=  191 fps= 12 q=33.0 size=       1kB time=00:00:02.76 bitrate=   2.1kbits/s speed=0.178x    frame=  198 fps= 12 q=33.0 size=       1kB time=00:00:02.90 bitrate=   2.0kbits/s speed=0.179x    frame=  205 fps= 12 q=33.0 size=       1kB time=00:00:03.04 bitrate=   1.9kbits/s speed=0.18x    frame=  213 fps= 12 q=33.0 size=       1kB time=00:00:03.20 bitrate=   1.8kbits/s speed=0.182x    frame=  219 fps= 12 q=33.0 size=       1kB time=00:00:03.32 bitrate=   1.8kbits/s speed=0.184x    frame=  223 fps= 12 q=33.0 size=       1kB time=00:00:03.40 bitrate=   1.7kbits/s speed=0.183x    frame=  230 fps= 12 q=33.0 size=       1kB time=00:00:03.54 bitrate=   1.7kbits/s speed=0.183x    frame=  237 fps= 12 q=33.0 size=       1kB time=00:00:03.68 bitrate=   1.6kbits/s speed=0.185x    frame=  244 fps= 12 q=33.0 size=       1kB time=00:00:03.82 bitrate=   1.5kbits/s speed=0.185x    frame=  251 fps= 12 q=33.0 size=       1kB time=00:00:03.96 bitrate=   1.5kbits/s speed=0.187x    frame=  255 fps= 12 q=33.0 size=    5159kB time=00:00:04.04 bitrate=10458.8kbits/s speed=0.185x    frame=  261 fps= 12 q=33.0 size=    5159kB time=00:00:04.16 bitrate=10157.2kbits/s speed=0.186x    frame=  262 fps= 11 q=33.0 size=    5159kB time=00:00:04.18 bitrate=10108.6kbits/s speed=0.18x    frame=  263 fps= 11 q=33.0 size=    5159kB time=00:00:04.20 bitrate=10060.5kbits/s speed=0.177x    frame=  265 fps= 11 q=33.0 size=    5159kB time=00:00:04.24 bitrate=9965.6kbits/s speed=0.173x    frame=  270 fps= 11 q=34.0 size=    5159kB time=00:00:04.34 bitrate=9736.0kbits/s speed=0.172x    frame=  275 fps= 11 q=34.0 size=    5159kB time=00:00:04.44 bitrate=9516.8kbits/s speed=0.172x    frame=  279 fps= 11 q=34.0 size=    5159kB time=00:00:04.52 bitrate=9348.4kbits/s speed=0.172x    frame=  284 fps= 11 q=34.0 size=    5159kB time=00:00:04.62 bitrate=9146.1kbits/s speed=0.172x    frame=  289 fps= 10 q=34.0 size=    5159kB time=00:00:04.72 bitrate=8952.4kbits/s speed=0.171x    frame=  294 fps= 10 q=34.0 size=    5159kB time=00:00:04.82 bitrate=8766.7kbits/s speed=0.171x    frame=  301 fps= 10 q=35.0 size=    6592kB time=00:00:04.96 bitrate=10884.9kbits/s speed=0.172x    frame=  307 fps= 10 q=35.0 size=    6592kB time=00:00:05.08 bitrate=10627.8kbits/s speed=0.172x    frame=  314 fps= 10 q=35.0 size=    6592kB time=00:00:05.22 bitrate=10342.9kbits/s speed=0.173x    frame=  319 fps= 10 q=35.0 size=    6592kB time=00:00:05.32 bitrate=10148.5kbits/s speed=0.173x    frame=  326 fps= 10 q=35.0 size=    6592kB time=00:00:05.46 bitrate=9888.3kbits/s speed=0.175x    frame=  331 fps= 10 q=35.0 size=    6592kB time=00:00:05.56 bitrate=9710.5kbits/s speed=0.175x    frame=  338 fps= 10 q=35.0 size=    6592kB time=00:00:05.70 bitrate=9472.0kbits/s speed=0.176x    frame=  343 fps= 10 q=34.0 size=    6592kB time=00:00:05.80 bitrate=9308.7kbits/s speed=0.176x    frame=  350 fps= 10 q=34.0 size=    6592kB time=00:00:05.94 bitrate=9089.4kbits/s speed=0.177x    frame=  355 fps= 10 q=34.0 size=    6592kB time=00:00:06.04 bitrate=8938.9kbits/s speed=0.177x    frame=  361 fps= 10 q=34.0 size=    6592kB time=00:00:06.16 bitrate=8764.8kbits/s speed=0.178x    frame=  367 fps= 10 q=34.0 size=    6592kB time=00:00:06.28 bitrate=8597.4kbits/s speed=0.179x    frame=  373 fps= 10 q=34.0 size=    6592kB time=00:00:06.40 bitrate=8436.2kbits/s speed=0.18x    frame=  379 fps= 10 q=34.0 size=    6592kB time=00:00:06.52 bitrate=8280.9kbits/s speed=0.18x    frame=  386 fps= 10 q=34.0 size=    6592kB time=00:00:06.66 bitrate=8106.9kbits/s speed=0.18x    frame=  394 fps= 10 q=34.0 size=    6592kB time=00:00:06.82 bitrate=7916.7kbits/s speed=0.181x    frame=  401 fps= 10 q=34.0 size=    6592kB time=00:00:06.96 bitrate=7757.5kbits/s speed=0.182x    frame=  406 fps= 10 q=34.0 size=    6592kB time=00:00:07.06 bitrate=7647.6kbits/s speed=0.182x    frame=  411 fps= 10 q=34.0 size=    6592kB time=00:00:07.16 bitrate=7540.9kbits/s speed=0.182x    frame=  418 fps= 10 q=34.0 size=    6592kB time=00:00:07.30 bitrate=7396.3kbits/s speed=0.182x    frame=  425 fps= 10 q=34.0 size=    6592kB time=00:00:07.44 bitrate=7257.1kbits/s speed=0.183x    frame=  432 fps= 10 q=34.0 size=    6592kB time=00:00:07.58 bitrate=7123.1kbits/s speed=0.184x    frame=  436 fps= 10 q=34.0 size=    6592kB time=00:00:07.66 bitrate=7048.7kbits/s speed=0.183x    frame=  442 fps= 10 q=34.0 size=    6592kB time=00:00:07.78 bitrate=6940.0kbits/s speed=0.184x    frame=  448 fps= 10 q=34.0 size=    6592kB time=00:00:07.90 bitrate=6834.6kbits/s speed=0.184x    frame=  454 fps= 10 q=34.0 size=    6592kB time=00:00:08.02 bitrate=6732.3kbits/s speed=0.185x    frame=  461 fps= 10 q=34.0 size=    6592kB time=00:00:08.16 bitrate=6616.8kbits/s speed=0.185x    frame=  468 fps= 10 q=34.0 size=    6592kB time=00:00:08.30 bitrate=6505.2kbits/s speed=0.186x    frame=  473 fps= 10 q=34.0 size=    6592kB time=00:00:08.40 bitrate=6427.8kbits/s speed=0.186x    frame=  478 fps= 10 q=34.0 size=    6592kB time=00:00:08.50 bitrate=6352.2kbits/s speed=0.185x    frame=  486 fps= 10 q=34.0 size=    6592kB time=00:00:08.66 bitrate=6234.9kbits/s speed=0.186x    frame=  494 fps= 10 q=34.0 size=    6592kB time=00:00:08.82 bitrate=6121.8kbits/s speed=0.187x    frame=  500 fps= 10 q=34.0 size=   11716kB time=00:00:08.94 bitrate=10734.6kbits/s speed=0.187x    frame=  500 fps=9.4 q=-1.0 Lsize=   13563kB time=00:00:09.94 bitrate=11176.4kbits/s speed=0.186x    
video:13558kB audio:0kB subtitle:0kB other streams:0kB global headers:0kB muxing overhead: 0.034055%
bench: utime=189.588s
bench: maxrss=1926344kB
[libx264 @ 0x2815120] frame I:3     Avg QP:29.38  size:433994
[libx264 @ 0x2815120] frame P:183   Avg QP:32.09  size: 40273
[libx264 @ 0x2815120] frame B:314   Avg QP:33.83  size: 16595
[libx264 @ 0x2815120] consecutive B-frames: 16.0%  0.8%  0.0% 83.2%
[libx264 @ 0x2815120] mb I  I16..4:  4.8% 81.1% 14.1%
[libx264 @ 0x2815120] mb P  I16..4:  0.1%  0.4%  0.0%  P16..4: 37.6%  2.3%  2.6%  0.0%  0.0%    skip:57.1%
[libx264 @ 0x2815120] mb B  I16..4:  0.0%  0.0%  0.0%  B16..8: 43.4%  0.1%  0.0%  direct: 0.0%  skip:56.4%  L0:48.5% L1:51.5% BI: 0.0%
[libx264 @ 0x2815120] final ratefactor: 26.08
[libx264 @ 0x2815120] 8x8 transform intra:81.8% inter:91.6%
[libx264 @ 0x2815120] coded y,uvDC,uvAC intra: 73.6% 76.0% 55.4% inter: 6.4% 6.3% 0.0%
[libx264 @ 0x2815120] i16 v,h,dc,p: 27% 32% 20% 22%
[libx264 @ 0x2815120] i8 v,h,dc,ddl,ddr,vr,hd,vl,hu: 14% 18% 32%  6%  6%  6%  8%  5%  7%
[libx264 @ 0x2815120] i4 v,h,dc,ddl,ddr,vr,hd,vl,hu: 19% 25% 14%  7%  7%  6%  9%  5%  7%
[libx264 @ 0x2815120] i8c dc,h,v,p: 64% 18% 15%  4%
[libx264 @ 0x2815120] Weighted P-Frames: Y:0.5% UV:0.0%
[libx264 @ 0x2815120] ref P L0: 53.8% 29.4% 13.1%  3.7%  0.0%
[libx264 @ 0x2815120] ref B L0: 86.8% 10.9%  2.3%
[libx264 @ 0x2815120] ref B L1: 94.4%  5.6%
[libx264 @ 0x2815120] kb/s:11106.11
